<svg viewBox="0 0 400 250" xmlns="http://www.w3.org/2000/svg">
  <rect width="400" height="250" fill="#ffffff"/>
  <!-- compass mark, centered -->
  <circle cx="200" cy="120" r="52" fill="none" stroke="#14213d" stroke-width="2.5"/>
  <polygon points="200,84 210,110 236,120 210,130 200,156 190,130 164,120 190,110" fill="#14213d"/>
  <!-- scattered location pins around it -->
  <g stroke="#14213d" stroke-width="1.75" fill="none">
    <path d="M100 80 a10 10 0 1 1 0.1 0 Z" transform="translate(0,0)"/>
  </g>
  <g fill="none" stroke="#14213d" stroke-width="1.75">
    <path d="M90 90 q0 -14 12 -14 q12 0 12 14 q0 10 -12 22 q-12 -12 -12 -22 Z"/>
    <circle cx="102" cy="88" r="4" fill="#14213d"/>
  </g>
  <g fill="none" stroke="#14213d" stroke-width="1.75">
    <path d="M290 70 q0 -12 10 -12 q10 0 10 12 q0 9 -10 19 q-10 -10 -10 -19 Z"/>
    <circle cx="300" cy="69" r="3.5" fill="#14213d"/>
  </g>
  <g fill="none" stroke="#14213d" stroke-width="1.75">
    <path d="M300 175 q0 -12 10 -12 q10 0 10 12 q0 9 -10 19 q-10 -10 -10 -19 Z"/>
    <circle cx="310" cy="174" r="3.5" fill="#c08a2e"/>
  </g>
  <g fill="none" stroke="#14213d" stroke-width="1.5" opacity="0.5">
    <path d="M110 190 q0 -10 8 -10 q8 0 8 10 q0 7 -8 16 q-8 -9 -8 -16 Z"/>
  </g>
</svg>
