<svg viewBox="0 0 400 250" xmlns="http://www.w3.org/2000/svg">
  <rect width="400" height="250" fill="#ffffff"/>
  <path d="M0 200 Q200 180 400 200 L400 250 L0 250 Z" fill="#14213d" fill-opacity="0.05"/>
  <path d="M0 200 Q200 180 400 200" fill="none" stroke="#14213d" stroke-width="2" opacity="0.55"/>
  <!-- river bend -->
  <path d="M0 225 Q120 210 180 225 Q240 240 400 220" fill="none" stroke="#14213d" stroke-width="1.5" opacity="0.4"/>
  <!-- trees -->
  <circle cx="70" cy="150" r="22" fill="#14213d" fill-opacity="0.07" stroke="#14213d" stroke-width="2"/>
  <line x1="70" y1="172" x2="70" y2="200" stroke="#14213d" stroke-width="2.25"/>
  <circle cx="330" cy="140" r="26" fill="#14213d" fill-opacity="0.07" stroke="#14213d" stroke-width="2"/>
  <line x1="330" y1="166" x2="330" y2="200" stroke="#14213d" stroke-width="2.25"/>
  <!-- deer -->
  <g stroke="#14213d" stroke-width="2.25" fill="none" stroke-linecap="round" stroke-linejoin="round">
    <ellipse cx="215" cy="178" rx="30" ry="15" fill="#14213d" fill-opacity="0.06"/>
    <path d="M240 172 L256 152"/>
    <circle cx="260" cy="147" r="9" fill="#14213d" fill-opacity="0.06"/>
    <path d="M264 140 L272 126 M266 143 L278 133"/>
    <path d="M256 143 L250 133"/>
    <line x1="196" y1="190" x2="192" y2="207"/>
    <line x1="208" y1="192" x2="206" y2="207"/>
    <line x1="222" y1="192" x2="224" y2="207"/>
    <line x1="234" y1="190" x2="238" y2="207"/>
    <path d="M185 172 L172 165"/>
  </g>
  <circle cx="150" cy="90" r="9" fill="#c08a2e"/>
</svg>
